<?xml version="1.0" encoding="utf-8"?>
<!-- Generator: Adobe Illustrator 23.0.3, SVG Export Plug-In . SVG Version: 6.00 Build 0)  -->
<svg version="1.1" id="Layer_1" xmlns="http://www.w3.org/2000/svg" xmlns:xlink="http://www.w3.org/1999/xlink" x="0px" y="0px"
	 viewBox="0 0 1366 768" style="enable-background:new 0 0 1366 768;" xml:space="preserve">
<style type="text/css">
	.st0{fill:#1A262C;}
</style>
<g>
	<g>
		<path class="st0" d="M592.5,398.9h-84.3l20.8-33.4h51.9l-32.9-94.4l-53.7,153.4h-41.5l56.5-161c8.3-22.4,21.2-33.8,38.7-33.9
			c17.5,0.2,30.4,11.5,38.5,33.9l56.7,161h-41.5L592.5,398.9z"/>
		<path class="st0" d="M703.8,391.1h91.6l18,33.4H701.6c-12.5,0-22.4-4.7-29.6-14.2c-4.6-5.9-6.8-12.5-6.8-19.7V232.1h38.7
			L703.8,391.1L703.8,391.1z"/>
		<path class="st0" d="M859.8,232.1L839,265.5h-38.2v-33.4L859.8,232.1L859.8,232.1z M891.4,424.5h-39V266
			c0-11.3,4.9-20.3,14.7-27.1c6.6-4.6,13.9-6.8,22-6.8h57.5v33.4h-55.2L891.4,424.5L891.4,424.5z"/>
		<path class="st0" d="M1009.6,346v45.1h99.2l18.2,33.4h-119.7c-12.3,0-22.2-4.6-29.6-13.9c-4.7-6.1-7.1-12.7-7.1-20V266
			c0-11.3,4.9-20.3,14.7-27.1c6.6-4.6,13.9-6.8,22-6.8h119.7l-18.2,33.4h-99.2v47.1h91.4V346L1009.6,346L1009.6,346z"/>
		<polygon class="st0" points="1157,232.1 1196.2,232.1 1196.2,312.6 1221,312.6 1270.1,232.1 1314.2,232.1 1253.2,328.3 
			1316.9,424.5 1272.6,424.5 1222.3,346 1196.2,346 1196.2,424.5 1157,424.5 		"/>
	</g>
	<g>
		<path class="st0" d="M330.6,233.7c17.4,0,31.6,14.2,31.6,31.6v238.9c0,17.4-14.2,31.6-31.6,31.6H91.8c-17.4,0-31.6-14.2-31.6-31.6
			V265.3c0-17.4,14.2-31.6,31.6-31.6L330.6,233.7 M330.6,222.5H91.8c-23.5,0-42.8,19.3-42.8,42.8v238.9c0,23.5,19.3,42.8,42.8,42.8
			h238.9c23.5,0,42.8-19.3,42.8-42.8V265.3C373.5,241.8,354.2,222.5,330.6,222.5"/>
		<path class="st0" d="M135.2,313.9h-14.1l3.5-5.6h8.7l-5.5-15.8l-9,25.6h-6.9l9.4-26.9c1.4-3.8,3.5-5.6,6.5-5.7
			c2.9,0,5.1,1.9,6.4,5.7l9.5,26.9h-6.9L135.2,313.9z"/>
		<path class="st0" d="M153.8,312.6h15.3l3,5.6h-18.7c-2.1,0-3.7-0.8-4.9-2.4c-0.8-1-1.1-2.1-1.1-3.3V286h6.5L153.8,312.6
			L153.8,312.6z"/>
		<path class="st0" d="M179.9,286.1l-3.5,5.6H170v-5.6H179.9z M185.1,318.2h-6.5v-26.5c0-1.9,0.8-3.4,2.4-4.5
			c1.1-0.8,2.3-1.1,3.7-1.1h9.6v5.6h-9.2L185.1,318.2L185.1,318.2z"/>
	</g>
	<g>
		<path class="st0" d="M466.7,484.6l-4.4,7h-8.1v-7H466.7z M473.4,525.2h-8.2v-33.4c0-2.4,1-4.3,3.1-5.7c1.4-1,2.9-1.4,4.6-1.4H485
			v7h-11.6L473.4,525.2L473.4,525.2z"/>
		<path class="st0" d="M499.1,506l2.8-4.4h14.8v-17h8.2v40.6h-8.2v-16.6h-17.6v16.6h-8.2v-40.6h8.2L499.1,506L499.1,506z"/>
		<path class="st0" d="M540.5,508.6v9.5h20.9l3.8,7H540c-2.6,0-4.7-1-6.2-2.9c-1-1.3-1.5-2.7-1.5-4.2v-26.3c0-2.4,1-4.3,3.1-5.7
			c1.4-1,2.9-1.4,4.7-1.4h25.3l-3.8,7h-20.9v9.9h19.3v7H540.5z"/>
		<path class="st0" d="M586.2,496.2c0-3.3,1.5-6,4.6-8.3c3-2.2,6.5-3.3,10.6-3.3h5.5c3.3,0,6.5,0.8,9.6,2.3c1.3,0.7,2.3,1.4,3.1,2.1
			l-7.2,5.5c-1.2-1.6-2.8-2.6-4.8-2.8c-0.2,0-0.5,0-0.8,0h-5.5c-2.7,0-4.7,0.8-6,2.2c-0.6,0.8-0.9,1.5-0.9,2.3
			c0,1.4,1.5,2.6,4.4,3.6c0.9,0.3,2.5,0.8,4.7,1.3c5.3,1.4,9.1,2.7,11.2,4.1c3.5,2.1,5.2,5,5.3,8.4c0,3.2-1.6,6-4.7,8.3
			c-3.1,2.2-6.8,3.3-11,3.3h-5.5c-3.5,0-6.8-0.8-10-2.3c-1.3-0.7-2.4-1.4-3.2-2.1l7-5.5c1.2,1.6,3,2.5,5.2,2.8c0.4,0,0.7,0,1,0h5.5
			c2.9,0,5.1-0.8,6.5-2.3c0.6-0.7,1-1.5,1-2.2c0-1.6-1.5-2.9-4.4-3.9c-0.4-0.2-3-0.9-7.7-2.2c-5.5-1.5-9.2-3.2-11.1-5.3
			C587,500.5,586.2,498.5,586.2,496.2z"/>
		<path class="st0" d="M634.3,508.6v9.5h20.9l3.8,7h-25.3c-2.6,0-4.7-1-6.2-2.9c-1-1.3-1.5-2.7-1.5-4.2v-26.3c0-2.4,1-4.3,3.1-5.7
			c1.4-1,2.9-1.4,4.7-1.4h25.3l-3.8,7h-20.9v9.9h19.3v7H634.3z"/>
		<path class="st0" d="M671.4,500v9.7c0,2.8,1,5,3,6.7c1.4,1.1,2.9,1.7,4.5,1.7h5.5c2.2,0,4.1-0.8,5.6-2.2c0.2-0.2,0.4-0.4,0.5-0.6
			l7.1,5.5c-2,1.9-5.1,3.2-9.2,4c-1.5,0.3-2.8,0.4-4,0.4h-5.5c-4.4,0-8.2-1.6-11.3-4.7c-3-3-4.4-6.6-4.4-10.7V500
			c0-4.3,1.6-8,4.7-11.1c3.1-2.9,6.8-4.4,11-4.4h5.5c3.5,0,6.8,0.8,10,2.3c1.3,0.7,2.4,1.4,3.2,2.1l-7.1,5.5c-1.2-1.6-3-2.5-5.2-2.8
			c-0.4,0-0.7,0-1,0h-5.5c-2.5,0-4.4,1.1-5.9,3.3C672,496.4,671.4,498.1,671.4,500z"/>
		<path class="st0" d="M723.1,525.7h-5.5c-4.4,0-8.2-1.6-11.3-4.7c-3-3-4.4-6.6-4.4-10.7v-10.8c0-4.3,1.6-8,4.7-11.1
			c3.1-2.9,6.8-4.4,11-4.4h5.5c4.4,0,8.2,1.6,11.3,4.7c3,3,4.4,6.6,4.4,10.7v10.8c0,4.3-1.6,8-4.7,11.1
			C731,524.3,727.3,525.7,723.1,525.7z M717.6,518.7h5.5c2.5,0,4.4-1.1,5.9-3.3c1-1.5,1.5-3.2,1.5-5.1v-10.8c0-2.8-1-5.1-3-6.7
			c-1.3-1.1-2.8-1.7-4.4-1.7h-5.5c-2.5,0-4.4,1.1-5.9,3.3c-1.1,1.5-1.6,3.2-1.6,5.1v10.8c0,2.8,1,5,3,6.7
			C714.5,518.1,716,518.7,717.6,518.7z"/>
		<path class="st0" d="M753.5,484.3c3,0,5.4,1.7,7.3,5.2c0.3,0.6,0.6,1.2,0.9,1.9l11.4,26.8v-33.7h8.2v33.7c0,2.3-1.1,4.2-3.3,5.6
			c-1.5,1-3.2,1.5-5,1.5c-3,0-5.4-1.7-7.3-5.2c-0.3-0.6-0.6-1.2-0.9-1.9l-11.4-26.8v33.7h-8.2v-33.7c0-2.3,1.1-4.1,3.3-5.6
			C750.1,484.9,751.7,484.3,753.5,484.3z"/>
		<path class="st0" d="M788.9,491.8c0-2.4,1-4.3,3.1-5.8c1.4-0.9,2.9-1.4,4.6-1.4h11.1c4.4,0,8.2,1.6,11.3,4.7c3,3,4.4,6.6,4.4,10.7
			v9.7c0,4.3-1.6,8-4.7,11.1c-3.1,2.9-6.8,4.4-11,4.4h-18.8V491.8z M815.1,509.8V500c0-2.8-1-5.1-3-6.7c-1.3-1.1-2.8-1.7-4.4-1.7
			h-10.6v26.5h10.6c2.5,0,4.4-1.1,5.9-3.3C814.6,513.3,815.1,511.6,815.1,509.8z"/>
		<path class="st0" d="M846.4,484.6h8.3v17h5.2l10.4-17h9.3l-12.9,20.3l13.5,20.3h-9.3l-10.6-16.6h-5.5v16.6h-8.3L846.4,484.6
			L846.4,484.6z"/>
		<path class="st0" d="M893.2,508.6v9.5h20.9l3.8,7h-25.3c-2.6,0-4.7-1-6.2-2.9c-1-1.3-1.5-2.7-1.5-4.2v-26.3c0-2.4,1-4.3,3.1-5.7
			c1.4-1,2.9-1.4,4.7-1.4H918l-3.8,7h-20.9v9.9h19.3v7H893.2z"/>
		<path class="st0" d="M940.5,502.2l11.3-17.6h8.8l-12,19.2c-1.4,2.2-2.7,3.8-4,4.6v16.7h-8.2v-16.6c-1.4-1-2.8-2.6-4.1-4.8
			l-11.9-19.2h8.8L940.5,502.2z"/>
	</g>
</g>
</svg>
